<?xml version="1.0" encoding="UTF-8"?>
<svg id="Ebene_1" data-name="Ebene 1" xmlns="http://www.w3.org/2000/svg" viewBox="0 0 1885.76 728.37">
  <defs>
    <style>
      .cls-1, .cls-2 {
        fill: none;
        stroke: #e2bd20;
        stroke-miterlimit: 10;
        stroke-width: 10px;
      }

      .cls-2 {
        opacity: .97;
      }
    </style>
  </defs>
  <path class="cls-1" d="M939.35,182.94c0,36.6-6.63,67.8-19.89,93.59-13.26,25.79-32.45,45.18-57.57,58.15-25.12,12.97-55.09,19.46-89.92,19.46s-64.74-6.52-89.72-19.58c-24.98-13.05-43.9-32.35-56.76-57.92-12.86-25.56-19.29-56.8-19.29-93.71,0-27.95,3.68-52.55,11.05-73.79,7.37-21.23,18.15-39.11,32.35-53.63,14.2-14.52,31.61-25.52,52.24-33.01,20.63-7.49,44-11.24,70.13-11.24,34.69,0,64.63,6.6,89.82,19.81,25.18,13.21,44.41,32.67,57.67,58.38,13.26,25.72,19.89,56.87,19.89,93.48ZM709.29,183.86c0,21.47,4.19,40.16,12.56,56.06,8.37,15.91,24.88,23.86,49.53,23.86,19.02,0,33.25-4.17,42.7-12.51,9.44-8.34,15.34-17.87,17.68-28.61,2.34-10.73,3.92-23.67,4.72-38.8-.8-21.47-5.29-40.19-13.46-56.18-8.17-15.99-25.39-23.98-51.64-23.98-41.39,0-62.09,26.72-62.09,80.16Z"/>
  <path class="cls-1" d="M1072.62,113h-117.17V10h207.75c24.1,2.56,43.9,9.9,59.42,22.04,15.51,12.14,26.87,28.42,34.07,48.86,5.54,30.66,5.82,54.29.83,70.9-4.99,16.61-13.71,30.5-26.18,41.68-12.47,11.18-30.33,19.96-53.6,26.35l22.44,33.05h69.25v103h-97.92l-95.15-114.25v114.25h-108.45v-206.95h184.07c4.01,0,8.38-1.04,13.09-3.11,4.71-2.07,7.2-6.86,7.48-14.37-.69-7.5-3.5-12.41-8.41-14.73-4.92-2.31-9.04-3.47-12.36-3.47l-79.15-.24Z"/>
  <path class="cls-1" d="M1486.86,252.88v-69.94h93.9v172.94h-132.96c-32.55,0-61.98-6.67-88.29-20-26.32-13.33-47.06-33.33-62.22-60-15.17-26.67-22.75-59.32-22.75-97.97,0-27.14,4.54-51.38,13.61-72.7,9.07-21.32,21.64-39.04,37.71-53.17,16.06-14.13,34.52-24.67,55.36-31.62,20.84-6.95,43.04-10.42,66.58-10.42h132.96v103h-93.9c-21.06,0-36.64.72-46.74,2.16-10.11,1.44-19.11,3.83-27.01,7.19-7.89,3.35-14.89,9.18-20.98,17.49-6.1,8.3-9.63,22.99-10.59,44.07.69,20.44,4.22,35.05,10.59,43.83,6.37,8.78,14.13,14.61,23.27,17.49,9.14,2.87,18.56,4.87,28.25,5.99,9.69,1.12,24.1,1.68,43.21,1.68Z"/>
  <path class="cls-1" d="M594.18,113V10H179.26c-23.55,0-45.74,3.47-66.58,10.42-20.85,6.95-39.3,17.49-55.36,31.62-16.07,14.13-28.64,31.86-37.71,53.17-9.07,21.32-13.61,45.55-13.61,72.7,0,38.65,7.58,71.3,22.75,97.97,15.16,26.67,35.9,46.67,62.22,60,26.31,13.34,55.75,20,88.29,20h132.96v-172.94h-93.9v69.94c-19.11,0-33.52-.56-43.21-1.68-9.7-1.11-19.11-3.11-28.25-5.99-9.14-2.87-16.9-8.7-23.27-17.48-6.37-8.78-9.9-23.39-10.59-43.83.97-21.08,4.5-35.77,10.59-44.07,6.09-8.3,13.09-14.13,20.98-17.48,7.89-3.35,16.9-5.75,27.01-7.19,10.11-1.44,25.69-2.16,46.74-2.16l118.44-.23v243.11h251.76v-103h-153.89v-39.76h103.04v-60.36h-103.04v-39.76h159.55Z"/>
  <path class="cls-1" d="M1598.22,355.87V10h257.19v103h-159.55v39.76h103.04v60.36h-103.04v39.76h184.9v103h-282.54Z"/>
  <path class="cls-1" d="M182.09,717.14v-242.88h-82.35v-102.99h179.99v242.88h162.46v102.99H182.09Z"/>
  <path class="cls-1" d="M590.7,371.27v204.55c-.83,23.32,3.04,39.52,11.63,48.62,8.59,9.1,22.02,13.97,40.3,14.61,14.68-.32,26.94-5.27,36.77-14.85,9.83-9.58,14.47-25.71,13.92-48.38v-204.55h97.64v202.88c-.42,28.74-4.54,51.7-12.36,68.86-7.83,17.17-17.73,31.5-29.71,42.99-11.98,11.5-27.01,20.44-45.08,26.83-18.07,6.39-38.19,9.9-60.35,10.54-18.42-.48-37.15-3.39-56.2-8.74-19.04-5.35-35.66-13.77-49.86-25.27-14.2-11.5-25.14-26.27-32.82-44.31-7.69-18.04-11.53-41.59-11.53-70.66v-203.12h97.64Z"/>
  <path class="cls-1" d="M1062.3,614.14h93.9v102.99h-132.96c-32.55,0-61.98-6.67-88.29-20-26.32-13.33-47.05-33.33-62.22-60-15.17-26.67-22.75-59.32-22.75-97.97,0-27.14,4.53-51.38,13.61-72.7,9.07-21.32,21.64-39.04,37.71-53.17,16.06-14.13,34.52-24.67,55.36-31.62,20.84-6.95,43.04-10.42,66.58-10.42h132.96v102.99h-93.9c-21.06,0-36.63.72-46.74,2.16-10.11,1.44-19.11,3.83-27.01,7.18-7.89,3.35-14.89,9.18-20.98,17.49-6.1,8.3-9.63,22.99-10.6,44.07.69,20.44,4.22,35.05,10.6,43.83,6.37,8.78,14.13,14.61,23.27,17.49,9.14,2.87,18.56,4.87,28.25,5.99,9.69,1.12,24.1,1.68,43.21,1.68Z"/>
  <path class="cls-2" d="M1807.61,474.26h73.13v-102.99h-163.71c-38.23,0-60.94,21.4-68.14,64.19-7.2,42.8,13.3,89.74,61.49,140.84,29.22,26.51,24.23,39.12-14.96,37.85h-166.19l-70.46-242.88h-148.96l-98.68,345.87h107.61l18.9-62.28h89.12l18.9,62.28h346.14c43.21-8.3,65.23-33.85,66.06-76.65.83-42.79-21.19-86.87-66.06-132.22-25.07-23.95-19.81-35.29,15.79-34.01ZM1341.61,584.92l43-137.01,39.68,137.01h-82.68Z"/>
</svg>